ply
format ascii 1.0
comment Created by Blender 2.72 (sub 0) - www.blender.org, source file: 'Start_Room_005.blend'
element vertex 20
property float x
property float y
property float z
element face 36
property list uchar uint vertex_indices
end_header
-1.000000 2.000000 1.000000
1.000000 0.000000 1.000000
-1.000000 0.000000 1.000000
-4.000000 0.000000 -6.000000
-4.000000 2.000000 -6.000000
-4.000000 2.000000 1.000000
4.000000 0.000000 -6.000000
4.000000 2.000000 -6.000000
1.000000 2.000000 -6.000000
4.000000 0.000000 1.000000
1.000000 0.000000 -6.000000
-1.000000 0.000000 -6.000000
-1.000000 2.000000 -6.000000
1.000000 2.000000 1.000000
-1.000000 0.000000 -8.000000
-1.000000 2.000000 -8.000000
1.000000 0.000000 -8.000000
1.000000 2.000000 -8.000000
4.000000 2.000000 1.000000
-4.000000 0.000000 1.000000
3 0 1 2
3 3 4 5
3 6 7 8
3 7 6 9
3 2 10 11
3 12 13 0
3 14 15 12
3 11 12 4
3 16 17 15
3 17 16 10
3 15 17 8
3 16 14 11
3 18 9 1
3 18 1 13
3 19 5 0
3 19 0 2
3 10 6 8
3 1 0 13
3 19 3 5
3 18 7 9
3 9 6 10
3 9 10 1
3 3 19 2
3 3 2 11
3 7 13 8
3 10 2 1
3 7 18 13
3 5 4 12
3 5 12 0
3 3 11 4
3 13 12 8
3 11 14 12
3 14 16 15
3 8 17 10
3 12 15 8
3 10 16 11
